<?xml version="1.0" encoding="iso-8859-1"?>
<!-- Generator: Adobe Illustrator 19.1.0, SVG Export Plug-In . SVG Version: 6.00 Build 0)  -->
<svg version="1.1" id="Capa_1" xmlns="http://www.w3.org/2000/svg" xmlns:xlink="http://www.w3.org/1999/xlink" x="0px" y="0px"
	 viewBox="0 0 540.076 540.076" style="enable-background:new 0 0 540.076 540.076;" xml:space="preserve">
<g>
	<path d="M459.064,18.001v0.001H8.999c-3.384,0-6.445,1.873-7.993,4.861c-1.548,3.006-1.296,6.607,0.666,9.361l196.355,276.393
		v204.456c0,3.636,2.197,6.931,5.563,8.317c1.098,0.468,2.286,0.684,3.438,0.684c2.34,0,4.644-0.918,6.373-2.628l54.008-54.008
		c1.674-1.692,2.628-3.979,2.628-6.373V308.617l91.354-128.592h97.673c44.665,0,81.012-36.347,81.012-81.012
		S503.728,18.001,459.064,18.001z M253.708,300.516c-1.098,1.53-1.674,3.349-1.674,5.221v149.602l-36.005,36.005V305.737
		c0-1.873-0.576-3.691-1.674-5.221L26.444,36.004H441.62L253.708,300.516z M459.064,162.022H374.18l89.398-125.839
		c32.644,2.324,58.495,29.604,58.495,62.83C522.073,133.758,493.809,162.022,459.064,162.022z"/>
</g>
<g>
</g>
<g>
</g>
<g>
</g>
<g>
</g>
<g>
</g>
<g>
</g>
<g>
</g>
<g>
</g>
<g>
</g>
<g>
</g>
<g>
</g>
<g>
</g>
<g>
</g>
<g>
</g>
<g>
</g>
</svg>
