<?xml version="1.0" encoding="iso-8859-1"?>
<!-- Generator: Adobe Illustrator 19.0.0, SVG Export Plug-In . SVG Version: 6.00 Build 0)  -->
<svg version="1.1" id="Capa_1" xmlns="http://www.w3.org/2000/svg" xmlns:xlink="http://www.w3.org/1999/xlink" x="0px" y="0px"
	 viewBox="0 0 94.031 94.031" style="enable-background:new 0 0 94.031 94.031;" xml:space="preserve">
<path style="fill:#231F20;" d="M61.547,6.103C60.867,2.137,53.748,0,47.016,0c-6.732,0-13.852,2.137-14.533,6.103h-0.066v0.621v2
	v6.828v7.15v45.248h0.008c0,0.336,0.076,0.678,0.256,0.992l14.336,25.088l14.336-25.088c0.18-0.314,0.256-0.656,0.254-0.992h0.01
	V22.703v-7.15V8.725v-2V6.103H61.547z M43.918,80.551L37.844,69.92c1.082-0.059,2.068-0.449,2.873-1.078
	c0.873,0.684,1.957,1.107,3.15,1.107c1.191,0,2.275-0.424,3.148-1.105c0.875,0.682,1.959,1.105,3.15,1.105
	c1.191,0,2.277-0.424,3.15-1.107c0.803,0.629,1.789,1.02,2.869,1.078l-6.074,10.631H43.918z M42.717,22.703h2.299v42.098l0,0
	c0,0.633-0.516,1.148-1.148,1.148c-0.635,0-1.15-0.516-1.15-1.15V22.703z M50.166,65.949c-0.635,0-1.148-0.516-1.148-1.15h-0.002
	V22.703h2.301v42.096C51.316,65.434,50.799,65.949,50.166,65.949z M38.717,22.703v42.096c0,0.635-0.518,1.15-1.15,1.15
	c-0.635,0-1.148-0.516-1.148-1.15h-0.002V22.703H38.717z M57.615,64.799c0,0.635-0.516,1.15-1.148,1.15
	c-0.635,0-1.15-0.516-1.15-1.15V22.703h2.299V64.799z M36.416,15.553v-5.449h21.199v5.449H36.416z"/>
<g>
</g>
<g>
</g>
<g>
</g>
<g>
</g>
<g>
</g>
<g>
</g>
<g>
</g>
<g>
</g>
<g>
</g>
<g>
</g>
<g>
</g>
<g>
</g>
<g>
</g>
<g>
</g>
<g>
</g>
</svg>
