<?xml version="1.0" encoding="iso-8859-1"?>
<!-- Generator: Adobe Illustrator 16.0.0, SVG Export Plug-In . SVG Version: 6.00 Build 0)  -->
<!DOCTYPE svg PUBLIC "-//W3C//DTD SVG 1.1//EN" "http://www.w3.org/Graphics/SVG/1.1/DTD/svg11.dtd">
<svg version="1.1" id="Capa_1" xmlns="http://www.w3.org/2000/svg" xmlns:xlink="http://www.w3.org/1999/xlink" x="0px" y="0px"
	 width="764.998px" height="764.997px" viewBox="0 0 764.998 764.997" style="enable-background:new 0 0 764.998 764.997;"
	 xml:space="preserve">
<g>
	<g>
		<circle cx="250.751" cy="100.238" r="18.441"/>
		<circle cx="135.128" cy="100.238" r="18.441"/>
		<circle cx="195.485" cy="55.331" r="18.441"/>
		<circle cx="195.485" cy="145.145" r="18.441"/>
		<circle cx="135.128" cy="18.441" r="18.441"/>
		<circle cx="135.128" cy="188.069" r="18.441"/>
		<path d="M358.422,762.911l3.53,2.086h242.922l3.857-9.203c23.428-55.908,36.59-114.28,39.123-173.497
			c2.023-47.344-2.709-95.301-14.066-142.537c-19.367-80.538-51.064-130.766-52.406-132.864l-4.422-6.928H458.857v15
			c0,77.946-34.326,111.844-70.668,147.731c-32.683,32.272-66.477,65.645-73.304,129.361
			c-5.932,55.363-1.108,100.332,14.333,133.654C341.586,752.403,356.735,761.914,358.422,762.911z M560.228,329.968
			c11.768,20.781,31.855,64.142,44.66,117.936c4.152,17.438,7.33,34.975,9.559,52.532h-72.898
			c7.182-44.319,9.967-101.774-0.516-170.467L560.228,329.968L560.228,329.968z M409.267,484.046
			c35.18-34.739,74.783-73.856,79.186-154.078h22.215c11.197,69.836,7.955,127.352,0.473,170.467H392.945
			C398.187,494.993,403.658,489.586,409.267,484.046z"/>
		<path d="M320.175,145.145h25.339V55.331h-25.339c-11.569,0-20.949,9.379-20.949,20.949v47.917
			C299.226,135.766,308.606,145.145,320.175,145.145z"/>
		<path d="M402.697,181c-1.381-1.171-2.793-2.25-4.234-3.255c-6.279-3.657-13.719-6.538-22.538-8.121
			c0,0-14.547,91.712-43.01,120.174c-28.462,28.462,16.445,37.95,36.686-6.325c19.891-43.514,50.766-55.25,61.428-55.641
			c-1.637-4.945-3.578-10.064-5.885-15.147C418.941,199.028,411.39,188.368,402.697,181z"/>
		<path d="M567.384,262.789c0-88.893,46.092-111.361,70.795-117.019c6.914-1.584,9.865-9.806,5.58-15.457
			c-48.455-63.872-103.424-74.982-129.504-74.982c-26.717,0-137.354,0-146.163,0h-0.576v89.814v1.265
			c83.489,0,93.61,116.379,93.61,116.379H567.384z"/>
	</g>
</g>
<g>
</g>
<g>
</g>
<g>
</g>
<g>
</g>
<g>
</g>
<g>
</g>
<g>
</g>
<g>
</g>
<g>
</g>
<g>
</g>
<g>
</g>
<g>
</g>
<g>
</g>
<g>
</g>
<g>
</g>
</svg>
